<svg width="24" height="24" viewBox="0 0 24 24" fill="none" xmlns="http://www.w3.org/2000/svg">
<path d="M2 5.23847V14.6403C2 14.8975 2.10216 15.1441 2.28402 15.326C2.37406 15.416 2.48096 15.4875 2.59861 15.5362C2.71626 15.5849 2.84235 15.61 2.9697 15.61H8.5718C8.80988 15.61 9.04562 15.6569 9.26558 15.748C9.48553 15.8391 9.68538 15.9727 9.85373 16.141C10.0221 16.3093 10.1556 16.5092 10.2467 16.7292C10.3378 16.9491 10.3847 17.1849 10.3847 17.4229V5.23847C10.3847 4.91092 10.255 4.59671 10.0238 4.3646C9.79272 4.13249 9.47906 4.00139 9.15151 4H3.23847C2.91001 4 2.595 4.13048 2.36274 4.36274C2.13048 4.595 2 4.91001 2 5.23847Z" stroke="#48639E" stroke-width="1.5" stroke-miterlimit="10" stroke-linecap="round"/>
<path d="M14.3949 15.61H12.1973C11.7185 15.6143 11.2598 15.8031 10.9167 16.137C10.5786 16.4796 10.3893 16.9416 10.3896 17.4229V5.23847C10.3896 4.91092 10.5194 4.59671 10.7505 4.3646C10.9816 4.13249 11.2953 4.00139 11.6229 4H17.5359C17.8634 4.00139 18.1771 4.13249 18.4082 4.3646C18.6393 4.59671 18.7691 4.91092 18.7691 5.23847V11.2675" stroke="#48639E" stroke-width="1.5" stroke-miterlimit="10" stroke-linecap="round"/>
<path d="M17.4412 17.3544C19.1206 17.3544 20.4821 15.993 20.4821 14.3135C20.4821 12.6341 19.1206 11.2727 17.4412 11.2727C15.7618 11.2727 14.4004 12.6341 14.4004 14.3135C14.4004 15.993 15.7618 17.3544 17.4412 17.3544Z" stroke="#13A2E4" stroke-width="1.5" stroke-miterlimit="10" stroke-linecap="round"/>
<path d="M22.0004 19.6521L19.2441 16.8959" stroke="#13A2E4" stroke-width="1.5" stroke-miterlimit="10" stroke-linecap="round"/>
<path d="M4.53516 8.22656H7.60235" stroke="#48639E" stroke-width="1.5" stroke-miterlimit="10" stroke-linecap="round"/>
<path d="M4.53516 11.3887H7.60235" stroke="#48639E" stroke-width="1.5" stroke-miterlimit="10" stroke-linecap="round"/>
<path d="M12.9668 8.22656H16.034" stroke="#48639E" stroke-width="1.5" stroke-miterlimit="10" stroke-linecap="round"/>
</svg>
