<svg width="19" height="18" viewBox="0 0 19 18" fill="none" xmlns="http://www.w3.org/2000/svg">
<g clip-path="url(#clip0_3038_8357)">
<path d="M12.5687 12.4453V7.98047C12.5687 7.49496 12.962 7.10156 13.4473 7.10156C13.9325 7.10156 14.3258 7.49496 14.3258 7.98047V12.4453C14.3258 12.9308 13.9325 13.3242 13.4473 13.3242C12.962 13.3242 12.5687 12.9308 12.5687 12.4453ZM8.77357 12.4805V10.7578H6.17318V12.4805C6.17318 12.966 5.77996 13.3594 5.29467 13.3594C4.80938 13.3594 4.41615 12.966 4.41615 12.4805V7.7168C4.41615 6.03035 5.78769 4.6582 7.47338 4.6582C9.15906 4.6582 10.5306 6.03035 10.5306 7.7168V12.4805C10.5306 12.966 10.1374 13.3594 9.65208 13.3594C9.16679 13.3594 8.77357 12.966 8.77357 12.4805ZM8.77357 9V7.7168C8.77357 6.99961 8.19024 6.41602 7.47338 6.41602C6.75651 6.41602 6.17318 6.99961 6.17318 7.7168V9H8.77357ZM13.2877 3.30293L14.3054 3.75187C14.4481 3.8148 14.5619 3.92871 14.6248 4.07145L15.0736 5.08957C15.2925 5.58668 15.9974 5.58668 16.2163 5.08957L16.6651 4.07145C16.728 3.92871 16.8418 3.8148 16.9845 3.75187L18.0022 3.30293C18.499 3.08391 18.499 2.37867 18.0022 2.15965L16.9845 1.7107C16.8418 1.64777 16.728 1.53387 16.6651 1.39113L16.2163 0.373008C15.9974 -0.124102 15.2925 -0.124102 15.0736 0.373008L14.6248 1.39113C14.5619 1.53387 14.4481 1.64777 14.3054 1.7107L13.2877 2.15965C12.7908 2.37867 12.7908 3.08391 13.2877 3.30293ZM17.4884 7.13672C17.0031 7.13672 16.6099 7.53012 16.6099 8.01562V15.0117C16.6099 15.6902 16.0582 16.2422 15.38 16.2422H3.36194C3.03303 16.2422 2.72414 16.1139 2.49186 15.8815C2.25958 15.6487 2.13167 15.3394 2.13202 15.0107L2.14397 2.98723C2.14468 2.30941 2.69638 1.75781 3.37389 1.75781H10.2846C10.7699 1.75781 11.1631 1.36441 11.1631 0.878906C11.1631 0.393398 10.7699 0 10.2846 0H3.37389C1.72861 0 0.388706 1.3391 0.386949 2.98547L0.375001 15.0089C0.374298 15.8077 0.684589 16.5586 1.24894 17.1239C1.8133 17.6892 2.56355 18.0004 3.36194 18.0004H15.38C17.027 18.0004 18.3669 16.6598 18.3669 15.0121V8.01598C18.3669 7.53047 17.9737 7.13707 17.4884 7.13707V7.13672Z" fill="#119D94"/>
</g>
<defs>
<clipPath id="clip0_3038_8357">
<rect width="18" height="18" fill="white" transform="translate(0.375)"/>
</clipPath>
</defs>
</svg>
