<?xml version="1.0" encoding="UTF-8"?>
<!DOCTYPE svg PUBLIC "-//W3C//DTD SVG 1.1//EN" "http://www.w3.org/Graphics/SVG/1.1/DTD/svg11.dtd">
<!-- Creator: CorelDRAW -->
<svg xmlns="http://www.w3.org/2000/svg" xml:space="preserve" width="209.88mm" height="209.88mm" version="1.1" style="shape-rendering:geometricPrecision; text-rendering:geometricPrecision; image-rendering:optimizeQuality; fill-rule:evenodd; clip-rule:evenodd"
viewBox="0 0 20988.02 20988.02"
 xmlns:xlink="http://www.w3.org/1999/xlink">
 <defs>
  <style type="text/css">
   <![CDATA[
    .str0 {stroke:#EC6645;stroke-width:700;stroke-miterlimit:22.9256}
    .fil2 {fill:none}
    .fil1 {fill:#4E5155}
    .fil0 {fill:#EC6645}
   ]]>
  </style>
 </defs>
 <g id="Layer_x0020_1">
  <metadata id="CorelCorpID_0Corel-Layer"/>
  <path class="fil0" d="M15663.36 17189.94c0,-790.35 741.09,-1463.92 1545.25,-1463.92l1260.6 0c781.5,0 1504.59,723.09 1504.59,1504.59l0 3212.49 -4310.44 0 0 -3253.16zm-4839.07 122c0,-884.08 737.56,-1585.92 1504.58,-1585.92 987.43,0 2124.11,-190.43 2630.43,826.06 96.54,193.8 175.42,320.78 175.42,597.2l0 3293.82 -4310.43 0 0 -3131.16zm-4798.41 -162.66c0,-268.85 74.13,-393.93 162.02,-569.93 118.14,-236.57 134.68,-236 315.14,-416.83 580.43,-581.6 1339.11,-436.5 2328.69,-436.5 247.84,0 446.44,80.7 611.06,161.57 378.55,185.98 584.49,398.34 759.06,786.19 77.65,172.51 134.46,444.47 134.46,678.82l0 3090.5 -4310.43 0 0 -3293.82zm-4839.08 81.33c0,-781.5 723.09,-1504.59 1504.59,-1504.59l1301.27 0c768.78,0 1504.58,700.52 1504.58,1463.92l0 3253.16 -4310.44 0 0 -3212.49zm-487.97 -121.99c0,646.87 -57.22,3361.61 40.67,3781.79 98.34,47.18 177.9,81.34 325.31,81.34l19030.98 0c147.42,0 226.97,-34.16 325.31,-81.34 97.56,-418.75 40.67,-3061.62 40.67,-3700.47 0,-1010.15 -941.74,-1951.89 -1951.89,-1951.89 -1133.82,0 -2235.43,-195.68 -2968.69,853.79 -66.39,95.04 -69.01,135 -162.48,203.49 -670.96,-1268.04 -1912.98,-1057.28 -3090.5,-1057.28 -698.14,0 -1560.13,597.55 -1667.24,1057.28l-81.34 0c-105.83,-454.25 -959.44,-1057.28 -1667.24,-1057.28 -955.45,0 -1760.93,-131.74 -2457.53,348.32 -209.46,144.34 -370.88,307.77 -510.78,505.83 -67.06,94.92 -69.51,134.75 -162.86,203.13 -246.55,-465.97 -925.59,-1057.28 -1626.58,-1057.28 -1171.92,0 -2050.35,-169.49 -2796.12,579.02 -277.5,278.53 -619.69,758.76 -619.69,1291.55z"/>
  <path class="fil1" d="M7896.45 5783.74c0,-858.37 161.98,-1442.97 782.76,-2063.74 842.11,-842.09 2071.71,-1010.11 3080.45,-538.86 531.23,248.17 974.96,733.1 1233.72,1246.79 832.4,1652.4 -245.57,3877.01 -2494.41,3877.01 -1051.77,0 -1921.57,-670.59 -2331.9,-1490.55 -134.28,-268.33 -270.62,-649.54 -270.62,-1030.65zm2439.86 3009.18c1172.22,0 1752.44,-195.89 2592.72,-1026.43 903.75,-893.27 1059.23,-2308.61 550.53,-3499.4 -84.16,-196.99 -177.12,-317.82 -288.05,-484.58l-363.08 -450.21c-73.4,-70.34 -121.71,-99.04 -202.08,-163.91 -1228.81,-991.77 -2862.81,-1012.61 -4048.05,-37.27 -353.07,290.55 -659.21,620.44 -872.36,1079.53 -536.36,1155.3 -377.82,2658 505.06,3535.75 543,539.84 1265.46,1046.52 2125.31,1046.52z"/>
  <path class="fil1" d="M6961.16 13286.16c0,-510.55 319.51,-947.08 649.41,-1099.17 467.11,-215.34 1025.91,-146.75 1394.98,193.38 731.44,674.12 323.97,2085.05 -865.12,2085.05 -630.43,0 -1179.27,-548.83 -1179.27,-1179.26zm-487.98 -162.66l0 243.98c0,804.03 781.9,1585.93 1585.93,1585.93 545.55,0 678.23,-27.08 1131.41,-332.51 746.29,-502.98 973,-1774.27 181.23,-2566.06 -1147.88,-1147.89 -2898.57,-137.31 -2898.57,1068.66z"/>
  <path class="fil1" d="M13020.17 14465.42c-674.55,0 -1219.94,-536.56 -1219.94,-1057.27 0,-377.36 24.06,-722.93 354.82,-1027.78 465.28,-428.8 1216.29,-441.41 1710.1,60.8 743,755.65 162.67,2024.25 -844.98,2024.25zm-1748.58 -1219.93c0,835.6 724.73,1707.92 1585.93,1707.92 602.34,0 901.48,-71.17 1352.31,-518.24 1070.9,-1061.96 252.21,-2926.74 -1260.26,-2875.08 -693.82,23.7 -1277.58,449.98 -1511.03,998.39 -60.83,142.88 -166.95,501.33 -166.95,687.01z"/>
  <path class="fil1" d="M17899.91 14465.42c-767.81,0 -1301.27,-522.81 -1301.27,-1219.93 0,-578.19 527.43,-1179.27 1097.94,-1179.27 408.55,0 691.45,32.61 1007.55,375.05 171.59,185.9 337.16,505.78 327.58,841.81 -8.93,313.32 -165.25,612.61 -329.06,805.82 -138.23,163.03 -517.8,376.52 -802.74,376.52zm-1789.24 -1219.93c0,965.65 805.16,1707.92 1585.91,1707.92l243.99 0c827.35,0 1585.91,-824.17 1585.91,-1667.25 0,-958.82 -730.61,-1692.05 -1678.04,-1726.14 -923.6,-33.24 -1737.77,746.04 -1737.77,1685.47z"/>
  <path class="fil1" d="M3220.03 12066.22c569.65,0 1006.14,176.31 1233.29,718.6 557.69,1331.36 -1166.41,2209.85 -1976.11,1325.48 -824.66,-900.71 -24.83,-2044.08 742.82,-2044.08zm-1585.91 1179.27c0,910.22 763.1,1707.92 1585.91,1707.92l243.99 0c807.74,0 1585.91,-766.88 1585.91,-1707.92 0,-944.47 -799.97,-1686.21 -1707.9,-1686.23 -900.58,-0.01 -1707.91,754.43 -1707.91,1686.23z"/>
  <path class="fil1" d="M9848.34 6597.04l0 -1951.9c96.88,25.87 326.19,158.43 430.14,220.5 215.85,128.88 1143.81,674.1 1318.43,714.78 -104.43,142.52 -660.92,398.74 -861.8,520.79l-886.77 495.83zm-528.64 -2317.88l0 2683.86c0,176.34 121.61,324.75 277.76,313.74 102.25,-7.19 324.68,-152.09 430.86,-215.09l2039.68 -1132.16c676.03,-392.05 110.18,-549.72 -331.92,-813.57 -244.16,-145.72 -469.57,-254.28 -706.63,-391.31 -156.61,-90.52 -1300.17,-770.79 -1465.76,-770.79 -131.76,0 -243.99,176.71 -243.99,325.32z"/>
  <rect class="fil2 str0" x="646.08" y="411.2" width="19676.28" height="10223.95" rx="1045.6" ry="1060.98"/>
 </g>
</svg>
