<?xml version="1.0" encoding="UTF-8"?>
<!DOCTYPE svg PUBLIC "-//W3C//DTD SVG 1.1//EN" "http://www.w3.org/Graphics/SVG/1.1/DTD/svg11.dtd">
<!-- Creator: CorelDRAW -->
<svg xmlns="http://www.w3.org/2000/svg" xml:space="preserve" width="209.88mm" height="209.88mm" version="1.1" style="shape-rendering:geometricPrecision; text-rendering:geometricPrecision; image-rendering:optimizeQuality; fill-rule:evenodd; clip-rule:evenodd"
viewBox="0 0 20988.02 20988.02"
 xmlns:xlink="http://www.w3.org/1999/xlink">
 <defs>
  <style type="text/css">
   <![CDATA[
    .fil1 {fill:#384452}
    .fil0 {fill:#EC6645}
   ]]>
  </style>
 </defs>
 <g id="Layer_x0020_1">
  <metadata id="CorelCorpID_0Corel-Layer"/>
  <path class="fil0" d="M1374.61 12940.93l2732.27 0c298.92,0 210.18,-268.88 210.18,-910.77l-2031.68 0 0 -10929.06 14922.38 0c0,1494.57 -208.65,1261.04 910.75,1261.04l0 -2171.8 -16743.9 0 0 12750.59z"/>
  <path class="fil0" d="M1584.79 20787.43c466.6,108.71 350.99,70.06 910.77,70.06 0,-329.9 64.41,-901.02 119.91,-1141.12 91.02,-393.87 267.45,-540.28 720.77,-540.28 673.64,0 2452.84,-108.73 2806.91,135.54 304.43,210.05 315.63,1184.36 345.71,1545.86l910.75 0c0,-953.63 75.65,-1681.4 840.71,-1681.4l2311.91 0c768.83,0 840.71,732.53 840.71,1681.4l910.75 0c171.95,-2066.36 1.39,-1681.4 3292.73,-1681.4 589.66,0 584.25,544.75 650.96,1100.66 75.87,632.02 -156.9,770.98 960.38,510.68 0,-470.69 -99.75,-1456.4 -377.61,-1864.26 -601.08,-882.32 -2125.33,-657.83 -3475.58,-657.83 -880.66,0 -1036.14,222.2 -1541.3,560.46 -510.85,-762.9 -2248.53,-560.46 -3362.78,-560.46 -651.99,0 -1207.11,166.07 -1471.23,560.46 -505.14,-338.26 -660.62,-560.46 -1541.27,-560.46 -2388.86,0 -3853.2,-417.74 -3853.2,2522.09z"/>
  <path class="fil0" d="M15316.18 13010.98c245.91,0 363.41,-85.25 413.73,-356.91l288.54 -3424.53c66.26,-1034.17 823.01,-772.33 2660.52,-772.33 805.52,0 593.31,1061.24 730.36,2001.91l164.85 1873.99c136.38,934.05 -656.65,598.38 -861.66,1131.76 -92.2,239.89 -34.4,1057.57 -32.61,1368.54 3.05,534.19 -74.3,778.48 -71.46,1329.73l0.46 2382.44c0,253.17 253.86,533.08 840.7,140.11 0,-795.07 70.58,-1506.99 70.05,-2381.98 -0.51,-864.49 70.07,-1540.42 70.07,-2452.03 1387.74,-370.55 779.12,-2298.65 700.59,-3572.97 -173.24,-2811 -498.57,-2732.27 -3292.73,-2732.27 -271.55,0 -656.73,31.75 -872.66,108.17 -205.91,72.88 -486.66,282.26 -618.57,432.3 -524.21,596.27 -409.16,2357.28 -570.03,3493.34 -88.69,626.28 -321.14,1430.73 379.85,1430.73z"/>
  <path class="fil1" d="M16857.46 5164.47c0,-327.47 -20.76,-507.72 249.87,-730.95 1163.22,-959.46 2156.95,1265.11 634.06,1479.84 -434.02,61.2 -883.93,-339.91 -883.93,-748.89zm-910.75 -280.23c0,619.58 56.08,991.79 512.69,1448.93 1085.38,1086.66 2920.15,93.76 2920.15,-958.52 0,-620.4 24.72,-1142.77 -508.17,-1593.57 -1165.03,-985.59 -2924.67,-203.43 -2924.67,1103.16z"/>
  <path class="fil1" d="M14475.49 16654c-1314.33,0 -1123.73,-1541.28 -140.12,-1541.28 606.18,0 1010.99,735.73 574.82,1275.39 -65.58,81.14 -315.24,265.89 -434.7,265.89zm-1821.51 -910.76c0,2583.86 3362.79,2197.32 3362.79,140.12 0,-1023.97 -1287.5,-2383.59 -2805.12,-1263.83 -254.08,187.45 -557.67,682.72 -557.67,1123.71z"/>
  <path class="fil1" d="M4527.23 16654c-1106.72,0 -1093.98,-1541.28 0,-1541.28 937.54,0 988.17,1541.28 0,1541.28zm-1751.45 -840.69c0,2201.5 3362.8,2479.55 3362.8,-70.07 0,-1581.56 -2424.89,-2183.94 -3174.58,-582.43 -42.21,90.15 -188.22,573.04 -188.22,652.5z"/>
  <path class="fil1" d="M8590.6 15883.36c0,-999.19 1611.35,-999.19 1611.35,0 0,691.34 -918.53,1018.84 -1383.26,542.56 -88.39,-90.58 -228.09,-403.86 -228.09,-542.56zm-840.7 -210.18l0 420.35c0,1194.12 1712.06,1984.57 2752.02,1070.63 760.87,-668.67 700.5,-1957.33 32.53,-2524.06 -1235.45,-1048.21 -2784.55,-17.05 -2784.55,1033.08z"/>
  <path class="fil1" d="M11883.34 11679.87c175.6,0 1077.61,392.38 637.41,1197.88 -444.5,813.35 -1772.29,213.35 -1387.32,-681.49 113.81,-264.53 432.43,-516.39 749.91,-516.39zm-1681.39 770.64c0,546.55 114.69,814.64 402.32,1138.95 704.75,794.68 1935.55,717.65 2537.19,-20.94 1010.51,-1240.54 -69.29,-2729.35 -1118.01,-2729.35 -595.69,0 -923.57,15.42 -1386.3,505.27 -264.57,280.05 -435.2,581.32 -435.2,1106.07z"/>
  <path class="fil1" d="M6138.58 12450.51c0,-129.53 150.42,-388.66 226.28,-474.29 722.61,-815.68 1793.32,288.34 1160.25,1019.99 -471.52,544.94 -1386.53,168.17 -1386.53,-545.7zm-840.71 -280.22c0,748.11 -80.14,985.62 575.78,1596.03 910.45,847.29 2716.95,332.71 2716.95,-1315.81 0,-915.36 -760.29,-1611.34 -1471.21,-1611.34 -601.08,0 -860.42,-14.71 -1316,435.47 -195.77,193.47 -505.52,541.95 -505.52,895.65z"/>
 </g>
</svg>
